# xmcd
#
# Track frame offsets:
#	150
#	17314
#	39294
#	58952
#	80657
#	99236
#	115599
#	134362
#	152706
#	170009
#	188648
#	206748
#	220120
#	240478
#	259107
#	280647
#
# Disc length: 4020 seconds
#
# Revision: 0
# Processed by: cddbd v1.5.2PL0 Copyright (c) Steve Scherf et al.
# Submitted via: EasyCDDAExtractor 11.0.2.1
#
DISCID=d10fb210
DTITLE=Various Artist - Najlepše Pop-Rock Balade
DYEAR=1900
DGENRE=Ballad
TTITLE0=PRLJAVO KAZALIŠTE - Uzalud Vam Trud Svirači
TTITLE1=ŽELJKO BEBEK - Oprosti Mi Što Te Volim
TTITLE2=INDEXI - Žute Dunje
TTITLE3=CRVENA JABUKA - Nekako S Proljeća
TTITLE4=COD - Denny
TTITLE5=VAN GOGH - Neko Te Ima
TTITLE6=KERBER - Kad Ljubav Izda
TTITLE7=POSLEDNJA IGRA LEPTIRA - Umiru Jeleni
TTITLE8=ALEN SLAVICA - Dao Sam Ti Dušu
TTITLE9=BORIS and KEMAL - Daleko
TTITLE10=MAGAZIN - Ginem
TTITLE11=AZRA - Usne Vrele Višnje
TTITLE12=BIJELO DUGME - Te Noći Kad Umrem
TTITLE13=ATOMSKO SKLONIŠTE - Za Ljubav Treba Imat Dušu
TTITLE14=MERLIN - Smijehom Strah Pokrijem
TTITLE15=DIVLJE JAGODE - Zauvijek Tvoj
EXTD=
EXTT0=
EXTT1=
EXTT2=
EXTT3=
EXTT4=
EXTT5=
EXTT6=
EXTT7=
EXTT8=
EXTT9=
EXTT10=
EXTT11=
EXTT12=
EXTT13=
EXTT14=
EXTT15=
PLAYORDER=
